<?xml version="1.0" encoding="utf-8"?>
<!-- Generator: Adobe Illustrator 15.1.0, SVG Export Plug-In . SVG Version: 6.00 Build 0)  -->
<!DOCTYPE svg PUBLIC "-//W3C//DTD SVG 1.1//EN" "http://www.w3.org/Graphics/SVG/1.1/DTD/svg11.dtd">
<svg version="1.1" id="Layer_1" xmlns="http://www.w3.org/2000/svg" xmlns:xlink="http://www.w3.org/1999/xlink" x="0px" y="0px"
	 width="560px" height="80px" viewBox="0 0 560 80" enable-background="new 0 0 560 80" xml:space="preserve">
<g>
	<path fill="#58595B" d="M123.079,12.049l20.729,44.449h-4.798l-6.991-14.625h-19.148l-6.924,14.625h-4.956l21-44.449H123.079z
		 M122.518,21.493l-7.616,16.09h15.196L122.518,21.493z"/>
	<path fill="#58595B" d="M182.817,10.932v45.566h-4.17v-5.65c-1.772,2.155-3.762,3.776-5.967,4.864
		c-2.206,1.088-4.619,1.632-7.237,1.632c-4.653,0-8.626-1.688-11.92-5.062c-3.293-3.373-4.94-7.478-4.94-12.313
		c0-4.733,1.662-8.782,4.986-12.147s7.322-5.046,11.996-5.046c2.7,0,5.142,0.574,7.328,1.722c2.186,1.148,4.104,2.871,5.756,5.167
		V10.932H182.817z M165.911,26.856c-2.355,0-4.528,0.578-6.519,1.735c-1.993,1.157-3.578,2.783-4.755,4.875
		c-1.177,2.092-1.765,4.306-1.765,6.639c0,2.315,0.594,4.529,1.781,6.64c1.187,2.112,2.782,3.758,4.784,4.936
		s4.15,1.766,6.444,1.766c2.313,0,4.507-0.583,6.579-1.751c2.073-1.167,3.667-2.747,4.784-4.738c1.116-1.992,1.675-4.235,1.675-6.73
		c0-3.803-1.253-6.982-3.758-9.538C172.656,28.134,169.573,26.856,165.911,26.856z"/>
	<path fill="#58595B" d="M225.21,10.932v45.566h-4.17v-5.65c-1.772,2.155-3.762,3.776-5.967,4.864
		c-2.206,1.088-4.619,1.632-7.237,1.632c-4.653,0-8.626-1.688-11.92-5.062c-3.294-3.373-4.941-7.478-4.941-12.313
		c0-4.733,1.662-8.782,4.986-12.147c3.324-3.365,7.322-5.046,11.997-5.046c2.699,0,5.142,0.574,7.327,1.722
		c2.186,1.148,4.104,2.871,5.756,5.167V10.932H225.21z M208.305,26.856c-2.354,0-4.527,0.578-6.519,1.735
		c-1.993,1.157-3.578,2.783-4.754,4.875s-1.765,4.306-1.765,6.639c0,2.315,0.594,4.529,1.78,6.64
		c1.187,2.112,2.782,3.758,4.784,4.936s4.15,1.766,6.444,1.766c2.314,0,4.507-0.583,6.58-1.751c2.072-1.167,3.666-2.747,4.784-4.738
		c1.117-1.992,1.675-4.235,1.675-6.73c0-3.803-1.253-6.982-3.758-9.538C215.05,28.134,211.966,26.856,208.305,26.856z"/>
	<path fill="#58595B" d="M252.617,12.049h4.441v40.157h17.103v4.292h-21.544V12.049z"/>
	<path fill="#58595B" d="M296.067,22.777c5.066,0,9.264,1.833,12.594,5.499c3.027,3.344,4.539,7.302,4.539,11.875
		c0,4.594-1.6,8.607-4.797,12.042c-3.199,3.434-7.311,5.151-12.336,5.151c-5.043,0-9.166-1.718-12.363-5.151
		c-3.199-3.435-4.799-7.448-4.799-12.042c0-4.551,1.514-8.5,4.541-11.844C286.776,24.62,290.983,22.777,296.067,22.777z
		 M296.054,26.916c-3.518,0-6.541,1.299-9.068,3.898c-2.525,2.599-3.789,5.742-3.789,9.427c0,2.378,0.576,4.593,1.729,6.647
		s2.707,3.641,4.67,4.759c1.961,1.117,4.113,1.678,6.459,1.678c2.344,0,4.496-0.561,6.457-1.678c1.963-1.118,3.52-2.704,4.67-4.759
		c1.152-2.055,1.73-4.27,1.73-6.647c0-3.686-1.27-6.829-3.807-9.427S299.55,26.916,296.054,26.916z"/>
	<path fill="#58595B" d="M349.37,23.623h4.23v26.197c0,4.613-0.402,7.988-1.209,10.123c-1.107,3.021-3.031,5.349-5.771,6.98
		c-2.74,1.631-6.033,2.447-9.881,2.447c-2.82,0-5.352-0.399-7.6-1.196c-2.246-0.799-4.074-1.87-5.484-3.214
		c-1.408-1.343-2.709-3.308-3.898-5.895h4.594c1.25,2.177,2.865,3.787,4.842,4.834c1.975,1.049,4.426,1.572,7.352,1.572
		c2.883,0,5.318-0.536,7.305-1.61c1.986-1.073,3.404-2.425,4.252-4.05c0.846-1.628,1.27-4.252,1.27-7.877v-1.691
		c-1.592,2.014-3.539,3.561-5.838,4.639c-2.299,1.077-4.738,1.616-7.318,1.616c-3.025,0-5.869-0.751-8.531-2.251
		c-2.662-1.501-4.719-3.521-6.17-6.059c-1.451-2.538-2.178-5.328-2.178-8.37c0-3.041,0.756-5.877,2.268-8.505
		c1.514-2.629,3.605-4.709,6.277-6.24s5.488-2.296,8.453-2.296c2.461,0,4.756,0.509,6.883,1.525
		c2.127,1.018,4.178,2.695,6.154,5.031V23.623z M336.892,26.856c-2.398,0-4.623,0.579-6.678,1.737
		c-2.055,1.159-3.668,2.761-4.836,4.805s-1.752,4.255-1.752,6.631c0,3.607,1.209,6.588,3.627,8.944
		c2.416,2.357,5.549,3.535,9.396,3.535c3.887,0,7.016-1.166,9.383-3.504c2.365-2.338,3.549-5.409,3.549-9.216
		c0-2.478-0.543-4.689-1.631-6.633c-1.088-1.944-2.629-3.479-4.623-4.608C341.333,27.42,339.187,26.856,336.892,26.856z"/>
	<path fill="#58595B" d="M378.228,22.777c5.064,0,9.262,1.833,12.592,5.499c3.027,3.344,4.541,7.302,4.541,11.875
		c0,4.594-1.6,8.607-4.799,12.042c-3.197,3.434-7.311,5.151-12.334,5.151c-5.045,0-9.168-1.718-12.365-5.151
		c-3.199-3.435-4.799-7.448-4.799-12.042c0-4.551,1.514-8.5,4.541-11.844C368.935,24.62,373.142,22.777,378.228,22.777z
		 M378.212,26.916c-3.518,0-6.541,1.299-9.068,3.898c-2.525,2.599-3.789,5.742-3.789,9.427c0,2.378,0.576,4.593,1.729,6.647
		s2.707,3.641,4.67,4.759c1.961,1.117,4.115,1.678,6.459,1.678s4.498-0.561,6.459-1.678c1.959-1.118,3.518-2.704,4.67-4.759
		c1.15-2.055,1.729-4.27,1.729-6.647c0-3.686-1.27-6.829-3.807-9.427S381.71,26.916,378.212,26.916z"/>
	<path fill="#58595B" d="M420.954,12.049h4.441v18.644h22.633V12.049h4.441v44.449h-4.441V35.044h-22.633v21.454h-4.441V12.049z"/>
	<path fill="#58595B" d="M490.271,45.59l3.564,1.873c-1.17,2.296-2.52,4.15-4.053,5.56c-1.533,1.41-3.256,2.482-5.172,3.218
		c-1.914,0.735-4.082,1.104-6.502,1.104c-5.365,0-9.557-1.756-12.582-5.273c-3.025-3.514-4.537-7.488-4.537-11.92
		c0-4.169,1.281-7.886,3.842-11.149c3.246-4.15,7.59-6.225,13.035-6.225c5.605,0,10.08,2.125,13.428,6.375
		c2.379,3.002,3.59,6.749,3.629,11.24h-29.582c0.08,3.818,1.301,6.949,3.66,9.391c2.361,2.442,5.273,3.663,8.744,3.663
		c1.672,0,3.303-0.291,4.885-0.873c1.584-0.581,2.93-1.354,4.039-2.318C487.78,49.292,488.979,47.737,490.271,45.59z
		 M490.271,36.736c-0.564-2.254-1.387-4.059-2.467-5.408s-2.506-2.437-4.281-3.264c-1.775-0.826-3.641-1.238-5.596-1.238
		c-3.229,0-6.002,1.038-8.32,3.112c-1.695,1.511-2.977,3.777-3.842,6.798H490.271z"/>
	<path fill="#58595B" d="M501.208,23.623h4.32v4.805c1.289-1.893,2.648-3.309,4.078-4.246c1.432-0.937,2.922-1.405,4.473-1.405
		c1.17,0,2.418,0.373,3.748,1.118l-2.207,3.565c-0.885-0.381-1.631-0.574-2.234-0.574c-1.41,0-2.771,0.58-4.08,1.737
		c-1.309,1.159-2.307,2.958-2.992,5.394c-0.523,1.873-0.785,5.661-0.785,11.361v11.12h-4.32V23.623z"/>
	<path fill="#58595B" d="M549.101,45.59l3.566,1.873c-1.17,2.296-2.521,4.15-4.053,5.56c-1.533,1.41-3.258,2.482-5.172,3.218
		c-1.916,0.735-4.084,1.104-6.504,1.104c-5.363,0-9.555-1.756-12.58-5.273c-3.025-3.514-4.537-7.488-4.537-11.92
		c0-4.169,1.279-7.886,3.842-11.149c3.244-4.15,7.59-6.225,13.033-6.225c5.605,0,10.082,2.125,13.428,6.375
		c2.379,3.002,3.59,6.749,3.631,11.24h-29.582c0.08,3.818,1.301,6.949,3.66,9.391c2.359,2.442,5.273,3.663,8.744,3.663
		c1.672,0,3.301-0.291,4.883-0.873c1.586-0.581,2.932-1.354,4.041-2.318C546.61,49.292,547.812,47.737,549.101,45.59z
		 M549.101,36.736c-0.564-2.254-1.387-4.059-2.467-5.408c-1.078-1.349-2.504-2.437-4.279-3.264
		c-1.775-0.826-3.641-1.238-5.598-1.238c-3.229,0-6,1.038-8.318,3.112c-1.695,1.511-2.977,3.777-3.842,6.798H549.101z"/>
</g>
<g>
	<rect x="8.455" y="7.983" fill="none" stroke="#58595B" stroke-width="4" stroke-miterlimit="10" width="80.375" height="64.3"/>
	<polyline fill="none" stroke="#58595B" stroke-width="4" stroke-miterlimit="10" points="16.568,48.17 32.567,32.095 
		62.038,64.246 	"/>
	<polyline fill="none" stroke="#58595B" stroke-width="4" stroke-miterlimit="10" points="55.429,55.734 67.396,42.813 
		80.792,56.207 	"/>
	<path fill="none" stroke="#58595B" stroke-width="4" stroke-miterlimit="10" d="M59.358,29.417c0,2.958-2.402,5.358-5.358,5.358
		c-2.962,0-5.358-2.4-5.358-5.358c0-2.962,2.396-5.358,5.358-5.358C56.957,24.058,59.358,26.455,59.358,29.417z"/>
</g>
</svg>
